<svg xmlns="http://www.w3.org/2000/svg" width="34" height="34"><g stroke-width="1.3" fill="none" fill-rule="evenodd" stroke-linecap="round" stroke-linejoin="round"><path stroke="#1D1D1B" d="M.65 32.796h6.174V9.822H.65zm2.188-20.728h1.798M2.838 30.55h1.798m-1.798-3.08h1.798m-1.798-3.08h1.798m-1.798-3.08h1.798m-1.798-3.081h1.798m-1.798-3.08h1.798m21.637 17.647h6.174V9.822h-6.174zm2.189-20.728h1.797M28.462 30.55h1.797m-1.797-3.08h1.797m-1.797-3.08h1.797m-1.797-3.08h1.797m-1.797-3.081h1.797m-1.797-3.08h1.797"/><g stroke="#1D1D1B"><path d="M6.824 32.796h19.449V.65H6.824z"/><path d="M13.609 32.76h5.878v-7.888h-5.878z"/></g><path stroke="#A89662" d="M9.7 6.235h2.811v-2.81H9.7zm5.443 0h2.811v-2.81h-2.811zm5.442 0h2.811v-2.81h-2.811zM9.7 11.288h2.811V8.477H9.7zm5.443 0h2.811V8.477h-2.811zm5.442 0h2.811V8.477h-2.811zM9.7 16.342h2.811v-2.811H9.7zm5.443 0h2.811v-2.811h-2.811zm5.442 0h2.811v-2.811h-2.811zM9.7 21.394h2.811v-2.81H9.7zm5.443 0h2.811v-2.81h-2.811zm5.442 0h2.811v-2.81h-2.811z"/></g></svg>