<svg xmlns="http://www.w3.org/2000/svg" xmlns:xlink="http://www.w3.org/1999/xlink" width="37" height="34"><defs><path id="a" d="M2.65 1.492v.862C.958 2.583.755 3.735.755 4.261c0 1.307 1.35 1.851 2.158 2.192l.156.063.237.096c.816.322 1.172.525 1.172 1.11 0 .585-.393.871-1.161.904h-.133a7.494 7.494 0 01-2.107-.508.632.632 0 00-.873.684.627.627 0 00.421.49c.654.249 1.333.43 2.025.541v.848a.63.63 0 001.26 0v-.878c1.147-.222 1.829-.981 1.829-2.098 0-1.482-1.231-1.971-1.966-2.263l-.37-.156c-.579-.236-1.377-.562-1.377-1.025-.01-.222-.01-.688 1.254-.688a8.48 8.48 0 011.821.258.629.629 0 10.334-1.214 10.36 10.36 0 00-1.525-.27v-.855a.63.63 0 10-1.26 0z"/></defs><g fill="none" fill-rule="evenodd"><path stroke="#1D1D1B" stroke-linecap="round" stroke-linejoin="round" stroke-width="1.3" d="M18.82 23.142l5.114-3.464a2.291 2.291 0 013.477 1.118"/><path stroke="#1D1D1B" stroke-linecap="round" stroke-linejoin="round" stroke-width="1.3" d="M22.585 24.203l5.623-3.97a2.293 2.293 0 013.184.549c.256.362.39.775.413 1.19"/><path stroke="#1D1D1B" stroke-linecap="round" stroke-linejoin="round" stroke-width="1.3" d="M5.304 33.185c.978-1.16 2.187-2.28 3.67-2.728 1.685-.506 3.21.26 4.806.715 1.59.453 3.174.933 4.76 1.406 1.546.46 3.217.903 4.809.396 2.067-.657 3.977-2.163 5.739-3.392 1.954-1.364 3.846-2.812 5.79-4.186a2.29 2.29 0 00.55-3.184 2.291 2.291 0 00-3.185-.547l-2.987 2.108-4.008 2.63"/><path stroke="#1D1D1B" stroke-linecap="round" stroke-linejoin="round" stroke-width="1.3" d="M16.213 27.034l5.792 2.233a2.293 2.293 0 002.96-1.297 2.292 2.292 0 00-1.299-2.959l-6.623-2.555c-.79-.305-1.583-.607-2.377-.905-1.246-.468-2.505-1.095-3.872-1.024-1.285.068-2.51.845-3.513 1.594-2.216 1.656-4.335 3.432-6.547 5.096"/><path stroke="#A89662" stroke-linecap="round" stroke-linejoin="round" stroke-width="1.3" d="M25.7 9.836a8.654 8.654 0 11-17.308 0 8.654 8.654 0 0117.308 0z"/><path fill="#A89662" d="M17.28 7.322a8.43 8.43 0 011.821.26.631.631 0 00.333-1.216c-.5-.127-1.009-.217-1.524-.27v-.855a.63.63 0 10-1.26.001v.862c-1.692.23-1.896 1.381-1.896 1.906 0 1.308 1.35 1.852 2.16 2.192l.155.063.237.097c.816.321 1.172.525 1.172 1.11 0 .585-.393.87-1.16.904h-.135a7.53 7.53 0 01-2.106-.508.632.632 0 00-.874.684c.04.228.202.416.422.49.654.25 1.333.43 2.025.54v.848a.63.63 0 101.26 0v-.877c1.146-.222 1.828-.98 1.828-2.099 0-1.48-1.23-1.97-1.965-2.262l-.37-.156c-.579-.237-1.376-.563-1.376-1.026-.012-.222-.012-.688 1.253-.688"/><g transform="translate(14 3.75)"><mask id="b" fill="#fff"><use xlink:href="#a"/></mask><path fill="#A89662" d="M-957 2191H842.092v-3470.75H-957z" mask="url(#b)"/><path fill="#A89662" d="M-4.491 15.995h15.075V-3.823H-4.491z" mask="url(#b)"/></g></g></svg>