<svg xmlns="http://www.w3.org/2000/svg" xmlns:xlink="http://www.w3.org/1999/xlink" width="28" height="35"><defs><path id="a" d="M8.285.351l.6 1.418-3.49 1.744.653.546c1.854 1.581 3.055 2.945 3.491 4.09l5.781-.054c.436-1.2 1.581-2.564 3.491-4.091l.654-.546-3.491-1.744.491-1.363h-8.18zM7.63 12.13a12.235 12.235 0 00-4.363 8.344l-.653 7.145a1.896 1.896 0 00-1.692 1.908c0 1.036.873 1.909 1.909 1.909H14.82L8.935 11.059 7.63 12.13zm13.907 8.289c-.272-3.271-1.854-6.325-4.363-8.343l-1.232-1.012 5.595 9.355z"/><path id="c" d="M8.285.351l.6 1.418-3.49 1.744.653.546c1.855 1.581 3.055 2.945 3.491 4.09l5.781-.054c.436-1.201 1.581-2.564 3.491-4.091l.654-.546-3.491-1.744.491-1.363h-8.18zM7.63 12.13a12.234 12.234 0 00-4.363 8.345l-.654 7.144a1.896 1.896 0 00-1.691 1.908c0 1.036.873 1.909 1.909 1.909H14.82L8.935 11.058 7.63 12.13zm13.907 8.29c-.272-3.273-1.854-6.326-4.363-8.344l-1.232-1.012 5.595 9.356z"/></defs><g fill="none" fill-rule="evenodd"><path stroke="#1D1D1B" stroke-linecap="round" stroke-linejoin="round" stroke-width="1.3" d="M8.285.65l1.909 4.363M16.465.65l-1.363 3.497"/><g transform="translate(0 .3)"><mask id="b" fill="#fff"><use xlink:href="#a"/></mask><path stroke="#1D1D1B" stroke-linecap="round" stroke-linejoin="round" stroke-width="1.3" d="M-4.078 36.436H26.81V-4.65H-4.078z" mask="url(#b)"/></g><g transform="translate(0 .3)"><mask id="d" fill="#fff"><use xlink:href="#c"/></mask><path stroke="#1D1D1B" stroke-linecap="round" stroke-linejoin="round" stroke-width="1.3" d="M-651.35 2339.35h1920v-3704h-1920z" mask="url(#d)"/></g><path stroke="#1D1D1B" stroke-linecap="round" stroke-linejoin="round" stroke-width="1.3" d="M21.537 20.72c-.273-3.273-1.854-6.327-4.363-8.345l-1.232-1.012m-.622-2.969c.436-1.2 1.581-2.564 3.49-4.09l.655-.546-3.49-1.745.49-1.363h-8.18l.6 1.418-3.49 1.745.653.545C7.903 5.94 9.102 7.303 9.54 8.448m-.605 2.91L7.63 12.43a12.238 12.238 0 00-4.363 8.345l-.654 7.144c-.982.11-1.69.927-1.69 1.91 0 1.035.871 1.908 1.907 1.908h11.99"/><path stroke="#1D1D1B" stroke-linecap="round" stroke-linejoin="round" stroke-width="1.3" d="M15.815 11.176h-6.99c-.75 0-1.364-.614-1.364-1.364 0-.75.614-1.364 1.364-1.364h6.99c.75 0 1.363.614 1.363 1.364 0 .75-.613 1.364-1.363 1.364z"/><path fill="#A89662" d="M26.872 30.677c0-.405-.141-.75-.423-1.034a1.406 1.406 0 00-1.037-.427c-.41 0-.756.143-1.038.427a1.415 1.415 0 00-.422 1.034c0 .405.14.75.422 1.034.282.284.628.425 1.038.425.409 0 .755-.141 1.037-.425.282-.285.423-.629.423-1.035zm-4.042 0c0-.357.068-.691.203-1.005.135-.313.319-.587.55-.82.232-.236.505-.42.82-.555a2.51 2.51 0 011.009-.203c.358 0 .694.067 1.009.203.315.134.587.319.819.555.232.233.415.508.55.82.136.314.204.648.204 1.005 0 .356-.068.69-.204 1.004a2.653 2.653 0 01-.55.822c-.232.234-.504.42-.82.553-.314.136-.65.203-1.008.203-.36 0-.695-.068-1.01-.203a2.551 2.551 0 01-1.37-1.376 2.52 2.52 0 01-.202-1.003zm1.148-8.813l1.338.747-6.576 11.544-1.21-.683 6.448-11.608zm-5.116 3.47c0-.405-.14-.75-.422-1.034a1.405 1.405 0 00-1.038-.425c-.41 0-.756.142-1.037.425a1.414 1.414 0 00-.423 1.035c0 .404.14.75.423 1.034.28.284.628.425 1.037.425.41 0 .756-.142 1.038-.425.282-.284.422-.63.422-1.034zm-4.041 0c0-.355.067-.69.203-1.003a2.67 2.67 0 01.55-.822 2.557 2.557 0 011.828-.756 2.55 2.55 0 011.829.756c.23.235.415.509.55.822.135.313.203.648.203 1.004 0 .355-.068.69-.203 1.003-.135.314-.32.587-.55.822a2.55 2.55 0 01-1.83.756 2.548 2.548 0 01-1.828-.756 2.694 2.694 0 01-.55-.822 2.507 2.507 0 01-.202-1.003z"/></g></svg>