<svg xmlns="http://www.w3.org/2000/svg" width="19" height="20"><path d="M8.344 14.75c-3.188 0-5.782-2.664-5.782-5.938 0-3.274 2.594-5.937 5.782-5.937 3.187 0 5.78 2.663 5.78 5.937 0 3.274-2.593 5.938-5.78 5.938zm10.067 2.723L14.813 13.8c-.003-.002-.005-.002-.007-.005a8.4 8.4 0 001.631-4.984C16.437 4.23 12.806.5 8.344.5 3.88.5.25 4.23.25 8.812c0 4.583 3.63 8.313 8.094 8.313 1.82 0 3.497-.628 4.851-1.675l.005.008 3.576 3.694c.225.231.521.348.817.348.296 0 .592-.117.818-.348a1.21 1.21 0 000-1.68z" fill-rule="evenodd"/></svg>