<svg xmlns="http://www.w3.org/2000/svg" width="14" height="14"><path d="M1.325 10.333c.429-.808 2.008-1.735 2.008-1.735.358-.203.79-.226.994.136 0 0 .513.616.643.705.597.404 1.15.388 1.707-.17l1.296-1.296L9.27 6.677c.559-.557.574-1.11.17-1.706-.09-.13-.704-.645-.704-.645-.363-.203-.341-.634-.138-.992 0 0 .927-1.581 1.736-2.008a.886.886 0 011.043.156l.573.573c1.816 1.816.922 3.865-.894 5.682l-1.66 1.66-1.658 1.66c-1.816 1.813-3.866 2.708-5.682.892l-.573-.572a.89.89 0 01-.157-1.044zm5.299-1s-.987.972-2.482 1.128M9.107 6.85s1.198-.987 1.353-2.482" stroke="#A89662" fill="none"/></svg>