<svg xmlns="http://www.w3.org/2000/svg" xmlns:xlink="http://www.w3.org/1999/xlink" width="28" height="35" viewBox="0 0 28 35">
    <defs>
        <path id="qj8pgw6hka" d="M8.285.351l.6 1.418-3.49 1.744.653.546c1.854 1.581 3.055 2.945 3.491 4.09l5.781-.054c.436-1.2 1.581-2.564 3.491-4.091l.654-.546-3.491-1.744.491-1.363h-8.18zM7.63 12.13c-2.509 2.072-4.09 5.127-4.363 8.344l-.653 7.145c-.983.109-1.692.927-1.692 1.908 0 1.036.873 1.909 1.909 1.909H14.82L8.935 11.059 7.63 12.13zm13.907 8.289c-.272-3.271-1.854-6.325-4.363-8.343l-1.232-1.012 5.595 9.355z"/>
        <path id="b3807y9ezc" d="M8.285.351l.6 1.418-3.49 1.744.653.546c1.855 1.581 3.055 2.945 3.491 4.09l5.781-.054c.436-1.201 1.581-2.564 3.491-4.091l.654-.546-3.491-1.744.491-1.363h-8.18zM7.63 12.13c-2.509 2.072-4.09 5.126-4.363 8.345l-.654 7.144c-.982.109-1.691.927-1.691 1.908 0 1.036.873 1.909 1.909 1.909H14.82L8.935 11.058 7.63 12.13zm13.907 8.29c-.272-3.273-1.854-6.326-4.363-8.344l-1.232-1.012 5.595 9.356z"/>
    </defs>
    <g fill="none" fill-rule="evenodd">
        <g>
            <g>
                <g>
                    <g>
                        <path stroke="#1D1D1B" stroke-linecap="round" stroke-linejoin="round" stroke-width="1.3" d="M8.285.65l1.909 4.363M16.465.65l-1.363 3.497" transform="translate(-652 -1364) translate(252 1236) translate(361 89) translate(39 39)"/>
                        <g transform="translate(-652 -1364) translate(252 1236) translate(361 89) translate(39 39) translate(0 .3)">
                            <mask id="ngnyk7kxbb" fill="#fff">
                                <use xlink:href="#qj8pgw6hka"/>
                            </mask>
                            <path stroke="#1D1D1B" stroke-linecap="round" stroke-linejoin="round" stroke-width="1.3" d="M-4.078 36.436L26.81 36.436 26.81 -4.65 -4.078 -4.65z" mask="url(#ngnyk7kxbb)"/>
                        </g>
                        <g transform="translate(-652 -1364) translate(252 1236) translate(361 89) translate(39 39) translate(0 .3)">
                            <mask id="1wsmqmbc4d" fill="#fff">
                                <use xlink:href="#b3807y9ezc"/>
                            </mask>
                            <path stroke="#1D1D1B" stroke-linecap="round" stroke-linejoin="round" stroke-width="1.3" d="M-651.35 2339.35L1268.65 2339.35 1268.65 -1364.65 -651.35 -1364.65z" mask="url(#1wsmqmbc4d)"/>
                        </g>
                        <g>
                            <path stroke="#1D1D1B" stroke-linecap="round" stroke-linejoin="round" stroke-width="1.3" d="M21.537 20.42c-.273-3.273-1.854-6.327-4.363-8.345l-1.232-1.012m-.622-2.969c.436-1.2 1.581-2.564 3.49-4.09l.655-.546-3.49-1.745.49-1.363h-8.18l.6 1.418-3.49 1.745.653.545C7.903 5.64 9.102 7.003 9.54 8.148m-.605 2.91L7.63 12.13c-2.509 2.073-4.09 5.127-4.363 8.345l-.654 7.144c-.982.11-1.69.927-1.69 1.91 0 1.035.871 1.908 1.907 1.908h11.99" transform="translate(-652 -1364) translate(252 1236) translate(361 89) translate(39 39) translate(0 .3)"/>
                            <path stroke="#1D1D1B" stroke-linecap="round" stroke-linejoin="round" stroke-width="1.3" d="M15.815 10.876h-6.99c-.75 0-1.364-.614-1.364-1.364 0-.75.614-1.364 1.364-1.364h6.99c.75 0 1.363.614 1.363 1.364 0 .75-.613 1.364-1.363 1.364z" transform="translate(-652 -1364) translate(252 1236) translate(361 89) translate(39 39) translate(0 .3)"/>
                            <path fill="#A89662" d="M26.872 30.377c0-.405-.141-.75-.423-1.034-.282-.284-.628-.427-1.037-.427-.41 0-.756.143-1.038.427-.281.284-.422.628-.422 1.034 0 .405.14.75.422 1.034.282.284.628.425 1.038.425.409 0 .755-.141 1.037-.425.282-.285.423-.629.423-1.035zm-4.042 0c0-.357.068-.691.203-1.005.135-.313.319-.587.55-.82.232-.236.505-.42.82-.555.314-.136.65-.203 1.009-.203.358 0 .694.067 1.009.203.315.134.587.319.819.555.232.233.415.508.55.82.136.314.204.648.204 1.005 0 .356-.068.69-.204 1.004-.135.313-.318.587-.55.822-.232.234-.504.42-.82.553-.314.136-.65.203-1.008.203-.36 0-.695-.068-1.01-.203-.314-.133-.587-.319-.82-.553-.23-.236-.414-.51-.55-.823-.134-.313-.202-.647-.202-1.003zm1.148-8.813l1.338.747-6.576 11.544-1.21-.683 6.448-11.608zm-5.116 3.47c0-.405-.14-.75-.422-1.034-.282-.284-.628-.425-1.038-.425-.41 0-.756.142-1.037.425-.282.285-.423.628-.423 1.035 0 .404.14.75.423 1.034.28.284.628.425 1.037.425.41 0 .756-.142 1.038-.425.282-.284.422-.63.422-1.034zm-4.041 0c0-.355.067-.69.203-1.003.135-.313.319-.587.55-.822.232-.235.505-.42.819-.555.315-.134.65-.201 1.009-.201.359 0 .695.067 1.01.201.314.136.587.32.819.555.23.235.415.509.55.822.135.313.203.648.203 1.004 0 .355-.068.69-.203 1.003-.135.314-.32.587-.55.822-.232.235-.505.42-.82.555-.314.134-.65.201-1.01.201-.357 0-.693-.067-1.008-.201-.314-.136-.587-.32-.82-.555-.23-.235-.414-.508-.55-.822-.135-.313-.202-.648-.202-1.003z" transform="translate(-652 -1364) translate(252 1236) translate(361 89) translate(39 39) translate(0 .3)"/>
                        </g>
                    </g>
                </g>
            </g>
        </g>
    </g>
</svg>
