<svg xmlns="http://www.w3.org/2000/svg" xmlns:xlink="http://www.w3.org/1999/xlink" width="37" height="34" viewBox="0 0 37 34">
    <defs>
        <path id="m38tc424ka" d="M2.65 1.492v.862C.958 2.583.755 3.735.755 4.261c0 1.307 1.35 1.851 2.158 2.192l.156.063.237.096c.816.322 1.172.525 1.172 1.11 0 .585-.393.871-1.161.904h-.133c-.724-.066-1.433-.238-2.107-.508-.212-.092-.459-.061-.641.082-.183.143-.272.375-.232.602.039.229.201.417.421.49.654.249 1.333.43 2.025.541v.848c0 .347.282.629.63.629.348 0 .63-.282.63-.629v-.878c1.147-.222 1.829-.981 1.829-2.098 0-1.482-1.231-1.971-1.966-2.263l-.37-.156c-.579-.236-1.377-.562-1.377-1.025-.01-.222-.01-.688 1.254-.688.615.019 1.225.107 1.821.258.336.093.683-.104.775-.44.093-.336-.105-.682-.441-.774-.501-.128-1.01-.218-1.525-.27v-.855c0-.348-.282-.63-.63-.63-.348 0-.63.282-.63.63z"/>
    </defs>
    <g fill="none" fill-rule="evenodd">
        <g>
            <g>
                <g>
                    <g>
                        <g>
                            <path stroke="#1D1D1B" stroke-linecap="round" stroke-linejoin="round" stroke-width="1.3" d="M18.82 22.392l5.114-3.464c1.027-.725 2.46-.478 3.184.548.127.18.224.372.293.57" transform="translate(-1007 -1362) translate(252 1236) translate(720 89) translate(35 37) translate(0 .75)"/>
                            <path stroke="#1D1D1B" stroke-linecap="round" stroke-linejoin="round" stroke-width="1.3" d="M22.585 23.453l5.623-3.97c1.026-.724 2.459-.477 3.184.549.256.362.39.775.413 1.19" transform="translate(-1007 -1362) translate(252 1236) translate(720 89) translate(35 37) translate(0 .75)"/>
                            <path stroke="#1D1D1B" stroke-linecap="round" stroke-linejoin="round" stroke-width="1.3" d="M5.304 32.435c.978-1.16 2.187-2.28 3.67-2.728 1.685-.506 3.21.26 4.806.715 1.59.453 3.174.933 4.76 1.406 1.546.46 3.217.903 4.809.396 2.067-.657 3.977-2.163 5.739-3.392 1.954-1.364 3.846-2.812 5.79-4.186 1.028-.724 1.275-2.157.55-3.184-.725-1.026-2.158-1.273-3.185-.547l-2.987 2.108-4.008 2.63" transform="translate(-1007 -1362) translate(252 1236) translate(720 89) translate(35 37) translate(0 .75)"/>
                            <path stroke="#1D1D1B" stroke-linecap="round" stroke-linejoin="round" stroke-width="1.3" d="M16.213 26.284l5.792 2.233c1.17.457 2.502-.127 2.96-1.297.456-1.17-.128-2.503-1.299-2.959l-6.623-2.555c-.79-.305-1.583-.607-2.377-.905-1.246-.468-2.505-1.095-3.872-1.024-1.285.068-2.51.845-3.513 1.594-2.216 1.656-4.335 3.432-6.547 5.096" transform="translate(-1007 -1362) translate(252 1236) translate(720 89) translate(35 37) translate(0 .75)"/>
                            <path stroke="#A89662" stroke-linecap="round" stroke-linejoin="round" stroke-width="1.3" d="M25.7 9.086c0 4.779-3.874 8.654-8.654 8.654-4.779 0-8.653-3.875-8.653-8.654 0-4.78 3.874-8.654 8.653-8.654 4.78 0 8.654 3.875 8.654 8.654z" transform="translate(-1007 -1362) translate(252 1236) translate(720 89) translate(35 37) translate(0 .75)"/>
                            <path fill="#A89662" d="M17.28 6.572c.614.02 1.225.107 1.821.26.336.091.683-.106.775-.442.092-.335-.106-.68-.442-.774-.5-.127-1.009-.217-1.524-.27v-.855c0-.348-.282-.629-.63-.629-.348 0-.63.281-.63.63v.862c-1.692.23-1.896 1.381-1.896 1.906 0 1.308 1.35 1.852 2.16 2.192l.155.063.237.097c.816.321 1.172.525 1.172 1.11 0 .585-.393.87-1.16.904h-.135c-.723-.067-1.432-.238-2.106-.508-.213-.092-.459-.06-.64.082-.184.143-.273.374-.234.602.04.228.202.416.422.49.654.25 1.333.43 2.025.54v.848c0 .348.282.63.63.63.348 0 .63-.282.63-.63v-.877c1.146-.222 1.828-.98 1.828-2.099 0-1.48-1.23-1.97-1.965-2.262l-.37-.156c-.579-.237-1.376-.563-1.376-1.026-.012-.222-.012-.688 1.253-.688" transform="translate(-1007 -1362) translate(252 1236) translate(720 89) translate(35 37) translate(0 .75)"/>
                        </g>
                        <g transform="translate(-1007 -1362) translate(252 1236) translate(720 89) translate(35 37) translate(14 3.75)">
                            <mask id="vzpe4xk4fb" fill="#fff">
                                <use xlink:href="#m38tc424ka"/>
                            </mask>
                            <path fill="#A89662" d="M-957 2191L842.092 2191 842.092 -1279.75 -957 -1279.75z" mask="url(#vzpe4xk4fb)"/>
                            <path fill="#A89662" d="M-4.491 15.995L10.584 15.995 10.584 -3.823 -4.491 -3.823z" mask="url(#vzpe4xk4fb)"/>
                        </g>
                    </g>
                </g>
            </g>
        </g>
    </g>
</svg>
