<svg xmlns="http://www.w3.org/2000/svg" width="34" height="34" viewBox="0 0 34 34">
    <g fill="none" fill-rule="evenodd" stroke-linecap="round" stroke-linejoin="round">
        <g stroke-width="1.3">
            <g>
                <g>
                    <g>
                        <path stroke="#1D1D1B" d="M.65 32.796L6.824 32.796 6.824 9.822.65 9.822zM2.838 12.068h1.798M2.838 30.55h1.798M2.838 27.47h1.798M2.838 24.39h1.798M2.838 21.31h1.798M2.838 18.229h1.798M2.838 15.149h1.798M26.273 32.796L32.447 32.796 32.447 9.822 26.273 9.822zM28.462 12.068h1.797M28.462 30.55h1.797M28.462 27.47h1.797M28.462 24.39h1.797M28.462 21.31h1.797M28.462 18.229h1.797M28.462 15.149h1.797" transform="translate(-1367 -1363) translate(252 1236) translate(1080 89) translate(35 38)"/>
                        <g stroke="#1D1D1B">
                            <path d="M0.824 32.35L20.273 32.35 20.273 0.204 0.824 0.204z" transform="translate(-1367 -1363) translate(252 1236) translate(1080 89) translate(35 38) translate(6 .446)"/>
                            <path d="M7.609 32.314L13.487 32.314 13.487 24.426 7.609 24.426z" transform="translate(-1367 -1363) translate(252 1236) translate(1080 89) translate(35 38) translate(6 .446)"/>
                        </g>
                        <path stroke="#A89662" d="M9.7 6.235L12.511 6.235 12.511 3.425 9.7 3.425zM15.143 6.235L17.954 6.235 17.954 3.425 15.143 3.425zM20.585 6.235L23.396 6.235 23.396 3.425 20.585 3.425zM9.7 11.288L12.511 11.288 12.511 8.477 9.7 8.477zM15.143 11.288L17.954 11.288 17.954 8.477 15.143 8.477zM20.585 11.288L23.396 11.288 23.396 8.477 20.585 8.477zM9.7 16.342L12.511 16.342 12.511 13.531 9.7 13.531zM15.143 16.342L17.954 16.342 17.954 13.531 15.143 13.531zM20.585 16.342L23.396 16.342 23.396 13.531 20.585 13.531zM9.7 21.394L12.511 21.394 12.511 18.584 9.7 18.584zM15.143 21.394L17.954 21.394 17.954 18.584 15.143 18.584zM20.585 21.394L23.396 21.394 23.396 18.584 20.585 18.584z" transform="translate(-1367 -1363) translate(252 1236) translate(1080 89) translate(35 38)"/>
                    </g>
                </g>
            </g>
        </g>
    </g>
</svg>
