<svg xmlns="http://www.w3.org/2000/svg" width="35" height="34" viewBox="0 0 35 34">
    <g fill="none" fill-rule="evenodd" stroke-linecap="round" stroke-linejoin="round">
        <g stroke-width="1.3">
            <g>
                <g>
                    <g>
                        <path stroke="#020203" d="M13.283.65L.65 5.173v13.57s.894 9.059 12.633 14.017M13.283.65l12.634 4.523v13.57s-.893 9.059-12.634 14.017" transform="translate(-287 -1363) translate(252 1236) translate(1 89) translate(34 38)"/>
                        <path stroke="#A89662" d="M23.336 28.66c4.108 0 7.437-3.33 7.437-7.437 0-4.108-3.329-7.438-7.437-7.438-4.107 0-7.437 3.33-7.437 7.438 0 4.107 3.33 7.437 7.437 7.437zM28.118 27.066l5.695 5.694" transform="translate(-287 -1363) translate(252 1236) translate(1 89) translate(34 38)"/>
                    </g>
                </g>
            </g>
        </g>
    </g>
</svg>
