<svg xmlns="http://www.w3.org/2000/svg" width="14" height="10" viewBox="0 0 14 10">
    <g fill="none" fill-rule="evenodd" stroke-linecap="round" stroke-linejoin="round">
        <g stroke="#A89662">
            <g>
                <g>
                    <g>
                        <g>
                            <g>
                                <path d="M11.841.228v7.113c0 .165-.124.3-.278.3H.44c-.153 0-.278-.135-.278-.3V.228M.245 7.555l3.6-3.742M11.792 7.555L8.19 3.81" transform="translate(-1235 -3392) translate(0 2889) translate(1007) translate(192 432) translate(37 63) translate(0 9)"/>
                                <path d="M.162.179l5.392 5.04s.292.234.442.234c.149 0 .44-.234.44-.234L11.842.162.162.18z" transform="translate(-1235 -3392) translate(0 2889) translate(1007) translate(192 432) translate(37 63) translate(0 9)"/>
                            </g>
                        </g>
                    </g>
                </g>
            </g>
        </g>
    </g>
</svg>
