<svg xmlns="http://www.w3.org/2000/svg" width="14" height="14" viewBox="0 0 14 14">
    <g fill="none" fill-rule="evenodd">
        <g stroke="#A89662">
            <g>
                <g>
                    <g>
                        <g>
                            <g>
                                <path d="M.325 9.333c.429-.808 2.008-1.735 2.008-1.735.358-.203.79-.226.994.136 0 0 .513.616.643.705.597.404 1.15.388 1.707-.17l1.296-1.296L8.27 5.677c.559-.557.574-1.11.17-1.706-.09-.13-.704-.645-.704-.645-.363-.203-.341-.634-.138-.992 0 0 .927-1.581 1.736-2.008.344-.183.768-.12 1.043.156l.573.573c1.816 1.816.922 3.865-.894 5.682l-1.66 1.66-1.658 1.66c-1.816 1.813-3.866 2.708-5.682.892l-.573-.572c-.275-.276-.34-.7-.157-1.044zM5.624 8.333s-.987.972-2.482 1.128M8.107 5.85s1.198-.987 1.353-2.482" transform="translate(-1235 -3361) translate(0 2889) translate(1007) translate(192 432) translate(37 36) translate(0 5)"/>
                            </g>
                        </g>
                    </g>
                </g>
            </g>
        </g>
    </g>
</svg>
